<mxfile host="Electron" modified="2022-09-25T00:35:29.232Z" agent="5.0 (Macintosh; Intel Mac OS X 10_15_7) AppleWebKit/537.36 (KHTML, like Gecko) draw.io/20.2.3 Chrome/102.0.5005.167 Electron/19.0.11 Safari/537.36" etag="rh4kv-0Fgq760N1d-TON" compressed="false" version="20.2.3" type="device">
  <diagram id="zHJoLA6md0Yeo67uzJwa" name="第1頁">
    <mxGraphModel dx="1000" dy="658" grid="1" gridSize="5" guides="0" tooltips="1" connect="1" arrows="1" fold="1" page="1" pageScale="1" pageWidth="827" pageHeight="1169" math="0" shadow="0">
      <root>
        <mxCell id="0" />
        <mxCell id="1" parent="0" />
        <mxCell id="m3pfPtTyuK7HYTcpv6uo-1" style="edgeStyle=orthogonalEdgeStyle;rounded=1;sketch=0;orthogonalLoop=1;jettySize=auto;html=1;fontFamily=Courier New;fontSize=12;strokeWidth=2;entryX=0.5;entryY=0;entryDx=0;entryDy=0;entryPerimeter=0;exitX=0.5;exitY=1;exitDx=0;exitDy=0;" parent="1" source="m3pfPtTyuK7HYTcpv6uo-2" target="m3pfPtTyuK7HYTcpv6uo-4" edge="1">
          <mxGeometry relative="1" as="geometry">
            <mxPoint x="170" y="20" as="sourcePoint" />
            <mxPoint x="170" y="80" as="targetPoint" />
          </mxGeometry>
        </mxCell>
        <object label="" type="ENTRY_POINT" id="m3pfPtTyuK7HYTcpv6uo-2">
          <mxCell style="ellipse;fontStyle=0;fontSize=12;sketch=0;rounded=1;align=left;fontFamily=Iosevka Fixed;strokeWidth=2;shadow=0;html=0;" parent="1" vertex="1">
            <mxGeometry x="180" y="80" width="40" height="40" as="geometry" />
          </mxCell>
        </object>
        <mxCell id="Dx2b7ezfvi1oqeqgblj4-1" style="edgeStyle=orthogonalEdgeStyle;rounded=0;orthogonalLoop=1;jettySize=auto;html=1;entryX=0.5;entryY=0;entryDx=0;entryDy=0;strokeWidth=2;fontFamily=Iosevka Fixed;fontStyle=0" parent="1" source="m3pfPtTyuK7HYTcpv6uo-4" target="W1SwkrzB2UoG-p9XxQ3V-2" edge="1">
          <mxGeometry relative="1" as="geometry">
            <mxPoint x="180" y="260" as="targetPoint" />
          </mxGeometry>
        </mxCell>
        <object label="mouse.moveTo(140, 35);&#xa;mouse.click();" type="PROCESS" id="m3pfPtTyuK7HYTcpv6uo-4">
          <mxCell style="fontSize=12;fontStyle=0;sketch=0;rounded=0;fontFamily=Iosevka Fixed;align=left;strokeWidth=2;arcSize=7;shadow=0;html=0;spacingLeft=5;verticalAlign=top;spacingTop=0;spacing=5;" parent="1" vertex="1">
            <mxGeometry x="40" y="160" width="320" height="60" as="geometry" />
          </mxCell>
        </object>
        <object label="" type="EXIT_POINT" id="m3pfPtTyuK7HYTcpv6uo-22">
          <mxCell style="shape=sumEllipse;perimeter=ellipsePerimeter;backgroundOutline=1;fontStyle=0;fontSize=16;sketch=0;rounded=1;fontFamily=Iosevka Fixed;align=left;strokeWidth=2;shadow=0;html=0;" parent="1" vertex="1">
            <mxGeometry x="180" y="340" width="40" height="40" as="geometry" />
          </mxCell>
        </object>
        <mxCell id="UbTHWvcrtNXVTwTKfJbN-1" value="內建 keyboard 物件功能說明" style="text;html=1;strokeColor=default;fillColor=none;align=left;verticalAlign=middle;whiteSpace=wrap;rounded=0;spacingLeft=5;strokeWidth=1;fontSize=20;movable=1;resizable=1;rotatable=1;deletable=1;editable=1;connectable=1;fontStyle=1" parent="1" vertex="1">
          <mxGeometry x="140" y="20" width="660" height="40" as="geometry" />
        </mxCell>
        <mxCell id="UbTHWvcrtNXVTwTKfJbN-2" value="keyboard" style="rounded=0;whiteSpace=wrap;html=1;fillColor=#000000;fontColor=#FFFFFF;fontSize=18;fontStyle=1;strokeWidth=1;movable=1;resizable=1;rotatable=1;deletable=1;editable=1;connectable=1;" parent="1" vertex="1">
          <mxGeometry x="40" y="20" width="100" height="40" as="geometry" />
        </mxCell>
        <mxCell id="Ot0KBQQzt72eOoxGLC2g-2" value="&lt;font style=&quot;font-size: 14px;&quot;&gt;&lt;b style=&quot;&quot;&gt;&lt;font style=&quot;font-size: 14px;&quot;&gt;函數：keyboard.press(key, modifier)&lt;/font&gt;&lt;/b&gt;&lt;br&gt;說明：按下按鍵&lt;/font&gt;&lt;span style=&quot;background-color: initial;&quot;&gt;&lt;font style=&quot;font-size: 14px;&quot;&gt;。&lt;br&gt;參數&lt;br&gt;key&lt;br&gt;&lt;span style=&quot;&quot;&gt;	&lt;/span&gt;&lt;/font&gt;&lt;/span&gt;&lt;blockquote style=&quot;margin: 0 0 0 40px; border: none; padding: 0px;&quot;&gt;&lt;span style=&quot;background-color: initial;&quot;&gt;&lt;font style=&quot;font-size: 14px;&quot;&gt;按下按鍵。若要按下 a 鍵就直接輸入&quot;a&quot;，其他按鍵與鍵盤相同。以下是其他特殊鍵&lt;/font&gt;&lt;/span&gt;&lt;/blockquote&gt;&lt;blockquote style=&quot;margin: 0px 0px 0px 40px; border: none; padding: 0px; font-size: 11px;&quot;&gt;&lt;span style=&quot;font-family: Helvetica;&quot;&gt;backspace&lt;br&gt;&lt;/span&gt;&lt;span style=&quot;font-family: Helvetica;&quot;&gt;delete&lt;br&gt;&lt;/span&gt;&lt;span style=&quot;font-family: Helvetica;&quot;&gt;enter&lt;br&gt;&lt;/span&gt;&lt;span style=&quot;font-family: Helvetica;&quot;&gt;tab&lt;br&gt;&lt;/span&gt;&lt;span style=&quot;font-family: Helvetica;&quot;&gt;escape&lt;br&gt;&lt;/span&gt;&lt;span style=&quot;font-family: Helvetica;&quot;&gt;up&lt;br&gt;&lt;/span&gt;&lt;span style=&quot;font-family: Helvetica;&quot;&gt;down&lt;br&gt;&lt;/span&gt;&lt;span style=&quot;font-family: Helvetica;&quot;&gt;right&lt;br&gt;&lt;/span&gt;&lt;span style=&quot;font-family: Helvetica;&quot;&gt;left&lt;br&gt;&lt;/span&gt;&lt;span style=&quot;font-family: Helvetica;&quot;&gt;home&lt;br&gt;&lt;/span&gt;&lt;span style=&quot;font-family: Helvetica;&quot;&gt;end&lt;br&gt;&lt;/span&gt;&lt;span style=&quot;font-family: Helvetica;&quot;&gt;pageup&lt;br&gt;&lt;/span&gt;&lt;span style=&quot;font-family: Helvetica;&quot;&gt;pagedown&lt;br&gt;&lt;/span&gt;&lt;span style=&quot;font-family: Helvetica;&quot;&gt;f1&lt;br&gt;&lt;/span&gt;&lt;span style=&quot;font-family: Helvetica;&quot;&gt;f2&lt;br&gt;&lt;/span&gt;&lt;span style=&quot;font-family: Helvetica;&quot;&gt;f3&lt;br&gt;&lt;/span&gt;&lt;span style=&quot;font-family: Helvetica;&quot;&gt;f4&lt;br&gt;&lt;/span&gt;&lt;span style=&quot;font-family: Helvetica;&quot;&gt;f5&lt;br&gt;&lt;/span&gt;&lt;span style=&quot;font-family: Helvetica;&quot;&gt;f6&lt;br&gt;&lt;/span&gt;&lt;span style=&quot;font-family: Helvetica;&quot;&gt;f7&lt;br&gt;&lt;/span&gt;&lt;span style=&quot;font-family: Helvetica;&quot;&gt;f8&lt;br&gt;&lt;/span&gt;&lt;span style=&quot;font-family: Helvetica;&quot;&gt;f9&lt;br&gt;&lt;/span&gt;&lt;span style=&quot;font-family: Helvetica;&quot;&gt;f10&lt;br&gt;&lt;/span&gt;&lt;span style=&quot;font-family: Helvetica;&quot;&gt;f11&lt;br&gt;&lt;/span&gt;&lt;span style=&quot;font-family: Helvetica;&quot;&gt;f12&lt;br&gt;&lt;/span&gt;&lt;span style=&quot;font-family: Helvetica;&quot;&gt;command&lt;br&gt;&lt;/span&gt;&lt;span style=&quot;font-family: Helvetica;&quot;&gt;alt&lt;br&gt;&lt;/span&gt;&lt;span style=&quot;font-family: Helvetica;&quot;&gt;control&lt;br&gt;&lt;/span&gt;&lt;span style=&quot;font-family: Helvetica;&quot;&gt;shift&lt;br&gt;&lt;/span&gt;&lt;span style=&quot;font-family: Helvetica;&quot;&gt;right_shift&lt;br&gt;&lt;/span&gt;&lt;span style=&quot;font-family: Helvetica;&quot;&gt;space&lt;br&gt;&lt;/span&gt;&lt;span style=&quot;font-family: Helvetica;&quot;&gt;printscreen&lt;br&gt;&lt;/span&gt;&lt;span style=&quot;font-family: Helvetica;&quot;&gt;insert&lt;br&gt;&lt;/span&gt;&lt;span style=&quot;font-family: Helvetica;&quot;&gt;audio_mute&lt;br&gt;&lt;/span&gt;&lt;span style=&quot;font-family: Helvetica;&quot;&gt;audio_vol_down&lt;br&gt;&lt;/span&gt;&lt;span style=&quot;font-family: Helvetica;&quot;&gt;audio_vol_up&lt;br&gt;&lt;/span&gt;&lt;span style=&quot;font-family: Helvetica;&quot;&gt;audio_play&lt;br&gt;&lt;/span&gt;&lt;span style=&quot;font-family: Helvetica;&quot;&gt;audio_stop&lt;br&gt;&lt;/span&gt;&lt;span style=&quot;font-family: Helvetica;&quot;&gt;audio_pause&lt;br&gt;&lt;/span&gt;&lt;span style=&quot;font-family: Helvetica;&quot;&gt;audio_prev&lt;br&gt;&lt;/span&gt;&lt;span style=&quot;font-family: Helvetica;&quot;&gt;audio_next&lt;br&gt;&lt;/span&gt;&lt;span style=&quot;font-family: Helvetica;&quot;&gt;audio_rewind&lt;br&gt;&lt;/span&gt;&lt;span style=&quot;font-family: Helvetica;&quot;&gt;audio_forward&lt;br&gt;&lt;/span&gt;&lt;span style=&quot;font-family: Helvetica;&quot;&gt;audio_repeat&lt;br&gt;&lt;/span&gt;&lt;span style=&quot;font-family: Helvetica;&quot;&gt;audio_random&lt;br&gt;&lt;/span&gt;&lt;span style=&quot;font-family: Helvetica;&quot;&gt;numpad_0&lt;br&gt;&lt;/span&gt;&lt;span style=&quot;font-family: Helvetica;&quot;&gt;numpad_1&lt;br&gt;&lt;/span&gt;&lt;span style=&quot;font-family: Helvetica;&quot;&gt;numpad_2&lt;br&gt;&lt;/span&gt;&lt;span style=&quot;font-family: Helvetica;&quot;&gt;numpad_3&lt;br&gt;&lt;/span&gt;&lt;span style=&quot;font-family: Helvetica;&quot;&gt;numpad_4&lt;br&gt;&lt;/span&gt;&lt;span style=&quot;font-family: Helvetica;&quot;&gt;numpad_5&lt;br&gt;&lt;/span&gt;&lt;span style=&quot;font-family: Helvetica;&quot;&gt;numpad_6&lt;br&gt;&lt;/span&gt;&lt;span style=&quot;font-family: Helvetica;&quot;&gt;numpad_7&lt;br&gt;&lt;/span&gt;&lt;span style=&quot;font-family: Helvetica;&quot;&gt;numpad_8&lt;br&gt;&lt;/span&gt;&lt;span style=&quot;font-family: Helvetica;&quot;&gt;numpad_9&lt;br&gt;&lt;/span&gt;&lt;span style=&quot;font-family: Helvetica;&quot;&gt;lights_mon_up&lt;br&gt;&lt;/span&gt;&lt;span style=&quot;font-family: Helvetica;&quot;&gt;lights_mon_down&lt;br&gt;&lt;/span&gt;&lt;span style=&quot;font-family: Helvetica;&quot;&gt;lights_kbd_toggle&lt;br&gt;&lt;/span&gt;&lt;span style=&quot;font-family: Helvetica;&quot;&gt;lights_kbd_up&lt;br&gt;&lt;/span&gt;&lt;span style=&quot;font-family: Helvetica;&quot;&gt;lights_kbd_down&lt;/span&gt;&lt;/blockquote&gt;&lt;span style=&quot;background-color: initial;&quot;&gt;&lt;font style=&quot;font-size: 14px;&quot;&gt;&lt;br&gt;modifier&lt;br&gt;&lt;span style=&quot;&quot;&gt;	&lt;/span&gt;&lt;/font&gt;&lt;/span&gt;&lt;blockquote style=&quot;margin: 0 0 0 40px; border: none; padding: 0px;&quot;&gt;&lt;span style=&quot;background-color: initial;&quot;&gt;&lt;font style=&quot;font-size: 14px;&quot;&gt;組合鍵，可以是字串或是陣列。&lt;br&gt;&lt;/font&gt;&lt;/span&gt;&lt;span style=&quot;background-color: initial;&quot;&gt;&lt;font style=&quot;font-size: 14px;&quot;&gt;可以使用 alt, win, control, alt。&lt;br&gt;&lt;/font&gt;&lt;/span&gt;&lt;span style=&quot;background-color: initial;&quot;&gt;&lt;font style=&quot;font-size: 14px;&quot;&gt;範例：&quot;alt&quot; 或是 [&quot;control&quot;, &quot;alt&quot;]。&lt;/font&gt;&lt;/span&gt;&lt;/blockquote&gt;" style="shape=note;strokeWidth=2;fontSize=14;size=20;whiteSpace=wrap;html=1;fillColor=#ffff88;strokeColor=#36393d;align=left;spacingLeft=5;verticalAlign=top;fontFamily=Tahoma;" parent="1" vertex="1">
          <mxGeometry x="420" y="80" width="380" height="1020" as="geometry" />
        </mxCell>
        <mxCell id="W1SwkrzB2UoG-p9XxQ3V-3" style="edgeStyle=orthogonalEdgeStyle;rounded=0;orthogonalLoop=1;jettySize=auto;html=1;entryX=0.5;entryY=0;entryDx=0;entryDy=0;strokeWidth=2;" parent="1" source="W1SwkrzB2UoG-p9XxQ3V-2" target="m3pfPtTyuK7HYTcpv6uo-22" edge="1">
          <mxGeometry relative="1" as="geometry" />
        </mxCell>
        <object label="keyboard.press(&quot;r&quot;, &quot;win&quot;); // 按下 Windows+R&#xa;keyboard.type(&quot;今天天氣很好！&quot;);" type="PROCESS" id="W1SwkrzB2UoG-p9XxQ3V-2">
          <mxCell style="fontSize=12;fontStyle=0;sketch=0;rounded=0;fontFamily=Iosevka Fixed;align=left;strokeWidth=2;arcSize=7;shadow=0;html=0;spacingLeft=5;verticalAlign=top;spacingTop=0;spacing=5;" parent="1" vertex="1">
            <mxGeometry x="40" y="260" width="320" height="40" as="geometry" />
          </mxCell>
        </object>
        <mxCell id="B357hQ51Rv0Uz25JH0Sr-1" value="&lt;font style=&quot;font-size: 14px;&quot;&gt;&lt;b style=&quot;&quot;&gt;&lt;font style=&quot;font-size: 14px;&quot;&gt;函數：keyboard.type(string)&lt;/font&gt;&lt;/b&gt;&lt;br&gt;說明：輸入文字&lt;/font&gt;&lt;span style=&quot;background-color: initial;&quot;&gt;&lt;font style=&quot;font-size: 14px;&quot;&gt;。&lt;br&gt;參數&lt;br&gt;string&lt;br&gt;&lt;span style=&quot;white-space: pre;&quot;&gt;	&lt;/span&gt;要輸入的文字。&lt;br&gt;&lt;/font&gt;&lt;/span&gt;" style="shape=note;strokeWidth=2;fontSize=14;size=20;whiteSpace=wrap;html=1;fillColor=#ffff88;strokeColor=#36393d;align=left;spacingLeft=5;verticalAlign=top;fontFamily=Tahoma;" vertex="1" parent="1">
          <mxGeometry x="40" y="420" width="340" height="100" as="geometry" />
        </mxCell>
      </root>
    </mxGraphModel>
  </diagram>
</mxfile>
